<?xml version="1.0" encoding="UTF-8"?>
<svg version="1.1" xmlns="http://www.w3.org/2000/svg" width="701" height="186">
<path d="M0 0 C231.33 0 462.66 0 701 0 C701 61.38 701 122.76 701 186 C469.67 186 238.34 186 0 186 C0 124.62 0 63.24 0 0 Z " fill="#FEF6FC" transform="translate(0,0)"/>
<path d="M0 0 C9.74326236 7.1266972 16.08578811 17.69176241 18.2109375 29.6171875 C19.57554378 42.80838155 16.05743973 54.94820245 8.2109375 65.6171875 C0.42214923 74.98205999 -10.07237216 80.63320535 -22.21484375 82.00390625 C-36.21424103 82.45549971 -49.2227304 77.9402031 -59.5390625 68.3671875 C-69.10599045 58.10079076 -72.36922526 46.95820975 -71.99609375 33.15234375 C-71.28562528 21.02075951 -65.75917516 10.39188796 -56.69140625 2.10546875 C-39.43679446 -11.39351912 -18.46190107 -12.00919778 0 0 Z " fill="#B00B87" transform="translate(136.7890625,62.3828125)"/>
<path d="M0 0 C27 0 27 0 37 4 C44.12741741 11.25245983 44.12741741 11.25245983 44.25 17.1875 C44.15655058 22.48863073 43.1446319 26.70180187 39.41796875 30.6953125 C32.96237425 36.51800557 27.66349369 37.28806926 19.1875 37.125 C16.155625 37.08375 13.12375 37.0425 10 37 C10 43.27 10 49.54 10 56 C6.7 56 3.4 56 0 56 C0 37.52 0 19.04 0 0 Z " fill="#B2108A" transform="translate(367,65)"/>
<path d="M0 0 C5.26660242 2.68980982 8.05292296 6.81501887 9.8828125 12.3046875 C10.54756929 19.75868168 10.52714895 25.27960237 5.8828125 31.3046875 C2.15932474 35.13160548 -1.86595086 36.70347257 -7.1171875 37.3046875 C-12.99644316 37.3046875 -15.91896877 36.42361874 -21.1171875 33.3046875 C-21.1171875 38.5846875 -21.1171875 43.8646875 -21.1171875 49.3046875 C-24.0871875 49.3046875 -27.0571875 49.3046875 -30.1171875 49.3046875 C-30.1171875 33.1346875 -30.1171875 16.9646875 -30.1171875 0.3046875 C-27.1471875 0.3046875 -24.1771875 0.3046875 -21.1171875 0.3046875 C-21.1171875 1.2946875 -21.1171875 2.2846875 -21.1171875 3.3046875 C-20.0240625 2.6446875 -18.9309375 1.9846875 -17.8046875 1.3046875 C-12.13503571 -1.51003325 -6.05435265 -1.98832984 0 0 Z " fill="#B2118A" transform="translate(492.1171875,84.6953125)"/>
<path d="M0 0 C2.92908678 1.07493729 5.29813463 2.39889459 8 4 C8 3.01 8 2.02 8 1 C10.97 1 13.94 1 17 1 C17 12.88 17 24.76 17 37 C14.03 37 11.06 37 8 37 C7.67 35.68 7.34 34.36 7 33 C5.6078125 33.9590625 5.6078125 33.9590625 4.1875 34.9375 C-0.46758731 37.94961532 -4.52939334 38.70393836 -10 38 C-14.31090773 36.55723652 -17.04471074 34.397786 -19.375 30.5 C-22.38303595 24.02115334 -23.09454762 17.78284574 -20.9375 10.875 C-17.16967462 1.69092563 -9.20918791 -1.03067946 0 0 Z " fill="#B2108A" transform="translate(437,84)"/>
<path d="M0 0 C11.88 0 23.76 0 36 0 C36 2.97 36 5.94 36 9 C35 10 35 10 32.59155273 10.11352539 C31.54942627 10.10828857 30.5072998 10.10305176 29.43359375 10.09765625 C28.30888672 10.09443359 27.18417969 10.09121094 26.02539062 10.08789062 C24.84138672 10.07951172 23.65738281 10.07113281 22.4375 10.0625 C21.24962891 10.05798828 20.06175781 10.05347656 18.83789062 10.04882812 C15.89190588 10.03699686 12.94594684 10.01906076 10 10 C10 14.62 10 19.24 10 24 C17.59 24 25.18 24 33 24 C33 26.97 33 29.94 33 33 C25.41 33 17.82 33 10 33 C10 40.59 10 48.18 10 56 C6.7 56 3.4 56 0 56 C0 37.52 0 19.04 0 0 Z " fill="#B2108A" transform="translate(179,65)"/>
<path d="M0 0 C2.64 0 5.28 0 8 0 C8 8.58 8 17.16 8 26 C10.64 24.35 13.28 22.7 16 21 C21.02202948 19.85474965 24.94884861 20.45565375 29.5 22.8125 C32.5621691 25.49189796 33.92519517 26.98048261 34.22705078 31.09448242 C34.21657715 32.33560791 34.20610352 33.5767334 34.1953125 34.85546875 C34.1924826 35.51710526 34.18965271 36.17874176 34.18673706 36.86042786 C34.17555918 38.96963737 34.15045981 41.07841925 34.125 43.1875 C34.11496707 44.61913448 34.10584176 46.05077564 34.09765625 47.48242188 C34.07562795 50.98841977 34.04111485 54.49416813 34 58 C30.7 58 27.4 58 24 58 C23.505 44.14 23.505 44.14 23 30 C15.58172346 29.20906795 15.58172346 29.20906795 12.625 31.75 C9.95780107 35.44304467 8.76198077 38.18849992 8.5859375 42.765625 C8.52792969 44.09980469 8.52792969 44.09980469 8.46875 45.4609375 C8.42234375 46.84152344 8.42234375 46.84152344 8.375 48.25 C8.31699219 49.65378906 8.31699219 49.65378906 8.2578125 51.0859375 C8.16375656 53.39030796 8.08079814 55.6951266 8 58 C5.03 58 2.06 58 -1 58 C-1.02312883 50.58540058 -1.04091785 43.17080889 -1.05181217 35.75618076 C-1.05703982 32.31359652 -1.06413531 28.87103688 -1.07543945 25.4284668 C-1.08834235 21.47444957 -1.09322918 17.52044244 -1.09765625 13.56640625 C-1.10281754 12.32476212 -1.10797882 11.08311798 -1.11329651 9.80384827 C-1.11337204 8.66274094 -1.11344757 7.52163361 -1.11352539 6.34594727 C-1.115746 5.335569 -1.11796661 4.32519073 -1.12025452 3.28419495 C-1 1 -1 1 0 0 Z " fill="#B2128B" transform="translate(265,63)"/>
<path d="M0 0 C5.44093427 2.38637468 7.6797753 5.70988768 10 11 C9.90454102 13.58276367 9.90454102 13.58276367 9 16 C6.86694336 17.30200195 6.86694336 17.30200195 4.08984375 18.23828125 C3.10048828 18.58310547 2.11113281 18.92792969 1.09179688 19.28320312 C-0.46958008 19.79270508 -0.46958008 19.79270508 -2.0625 20.3125 C-3.10728516 20.67150391 -4.15207031 21.03050781 -5.22851562 21.40039062 C-7.81331393 22.28559553 -10.40311772 23.15103751 -13 24 C-12.24849977 27.27773504 -12.24849977 27.27773504 -9 29 C-6.62244051 29.3168217 -6.62244051 29.3168217 -4.0625 29.25 C-3.20785156 29.25515625 -2.35320313 29.2603125 -1.47265625 29.265625 C1.14104624 28.98484811 2.69888787 28.21060596 5 27 C5.99 27 6.98 27 8 27 C9.4606285 29.64738916 10 30.89448334 10 34 C2.69783941 37.90580683 -5.06516074 39.61765584 -13.25 37.38671875 C-18.76302459 35.01653583 -21.45033421 31.32912979 -24 26 C-25.81709841 20.54870476 -25.81891217 15.1245455 -23.5 9.8125 C-18.03599608 0.37811261 -10.49466076 -1.57351498 0 0 Z " fill="#B3138B" transform="translate(531,84)"/>
<path d="M0 0 C4.63599344 2.3346251 7.66346799 5.32693597 10 10 C10 11.98 10 13.96 10 16 C-0.89 19.96 -0.89 19.96 -12 24 C-10.5 28 -10.5 28 -8 29 C-2.32045232 29.43924559 2.68659435 29.23722343 8 27 C10 30 10 30 9.625 32.6875 C9.41875 33.450625 9.2125 34.21375 9 35 C1.03652269 37.79303588 -6.30354638 39.95427928 -14.3125 36.3125 C-19.49619679 33.3857209 -22.08046355 29.56340224 -24 24 C-24.78648326 17.88189181 -24.56821135 12.11510665 -21.375 6.7265625 C-15.85641638 -0.20302261 -8.49734617 -1.4064573 0 0 Z " fill="#B2118A" transform="translate(615,84)"/>
<path d="M0 0 C3.3 0 6.6 0 10 0 C18 15.42857143 18 15.42857143 18 20 C18.66 20 19.32 20 20 20 C20.103125 19.32453125 20.20625 18.6490625 20.3125 17.953125 C21.14774712 14.36535898 22.52290823 11.10829355 24 7.75 C24.27328125 7.11320312 24.5465625 6.47640625 24.828125 5.8203125 C26.85925752 1.14074248 26.85925752 1.14074248 28 0 C30.67058851 -0.14115161 33.32432238 -0.04247107 36 0 C35.35300286 3.97669884 34.12369331 7.35869335 32.5234375 11.05078125 C32.02038086 12.21770508 31.51732422 13.38462891 30.99902344 14.58691406 C30.45781306 15.82883304 29.91646967 17.07069405 29.375 18.3125 C28.82805162 19.57632484 28.28150326 20.84032287 27.73535156 22.10449219 C26.16330958 25.73913622 24.58245417 29.36987704 23 33 C22.58717773 33.94858887 22.17435547 34.89717773 21.74902344 35.87451172 C19.84227938 40.25393231 17.92732084 44.6295964 16 49 C13.03 49 10.06 49 7 49 C7.5591751 44.66639297 9.24521556 41.2935567 11.2578125 37.4765625 C12.89684031 32.00738548 10.69882406 26.72674132 8.49609375 21.69921875 C8.00302734 20.55775391 7.50996094 19.41628906 7.00195312 18.24023438 C6.48568359 17.06783203 5.96941406 15.89542969 5.4375 14.6875 C4.41230551 12.33857235 3.39001163 9.98837587 2.37109375 7.63671875 C1.91661865 6.60248779 1.46214355 5.56825684 0.99389648 4.50268555 C0 2 0 2 0 0 Z " fill="#B2128B" transform="translate(304,85)"/>
<path d="M0 0 C1.15837626 4.05431692 0.83691257 6.21812119 -1 10 C-2.60875 10.0928125 -2.60875 10.0928125 -4.25 10.1875 C-7.9914499 10.68239473 -7.9914499 10.68239473 -10.19140625 12.91015625 C-12.76661567 17.30970409 -12.63408622 21.23622637 -12.6875 26.25 C-12.72939057 28.06779692 -12.77476915 29.885518 -12.82421875 31.703125 C-12.83541748 32.50395508 -12.84661621 33.30478516 -12.8581543 34.12988281 C-13 36 -13 36 -14 37 C-16.97 37 -19.94 37 -23 37 C-23 25.12 -23 13.24 -23 1 C-20.03 1 -17.06 1 -14 1 C-13.67 2.98 -13.34 4.96 -13 7 C-12.21625 6.030625 -11.4325 5.06125 -10.625 4.0625 C-7.33466755 -0.00712172 -5.21729151 -0.11341938 0 0 Z " fill="#B4178D" transform="translate(570,84)"/>
<path d="M0 0 C0 1.98 0 3.96 0 6 C-2.64 6.33 -5.28 6.66 -8 7 C-8.37094436 9.36555264 -8.37094436 9.36555264 -8 12 C-6.08041644 13.83494604 -6.08041644 13.83494604 -3.5625 15.1875 C0.9243604 17.8487208 0.9243604 17.8487208 2 20 C2.51436888 24.08555854 2.92098732 28.21847627 0.98828125 31.95703125 C-1.14811881 34.59384934 -2.76635178 35.92211726 -6 37 C-11.03415457 37.37290034 -13.89042374 36.98878273 -18 34 C-17.67 31.69 -17.34 29.38 -17 27 C-14.03 27.33 -11.06 27.66 -8 28 C-7.67 26.35 -7.34 24.7 -7 23 C-7.54269531 22.62488281 -8.08539063 22.24976562 -8.64453125 21.86328125 C-16.22311964 16.44220091 -16.22311964 16.44220091 -18 12 C-18.4430062 8.45595039 -18.23046098 6.50701415 -16.75 3.25 C-12.53010362 -2.17558106 -6.27297073 -2.09099024 0 0 Z " fill="#B2128B" transform="translate(256,85)"/>
<path d="M0 0 C2.68125 -0.0825 5.3625 -0.165 8.125 -0.25 C8.95789551 -0.28641602 9.79079102 -0.32283203 10.64892578 -0.36035156 C15.89753078 -0.43799735 18.84890043 0.50842092 23 4 C24.43735246 6.87470493 24.38172649 8.81894588 24 12 C20.07156105 16.04068006 16.05026348 17.88722423 10.44921875 18.1953125 C9.20785156 18.17210938 7.96648437 18.14890625 6.6875 18.125 C3.3771875 18.063125 3.3771875 18.063125 0 18 C0 12.06 0 6.12 0 0 Z " fill="#FCEEF8" transform="translate(377,75)"/>
<path d="M0 0 C5.53846154 3.07692308 5.53846154 3.07692308 7 6 C7.54016597 10.50728651 7.60322525 13.94994123 5.3125 17.9375 C1.67660249 21.18032751 -0.61360109 22 -5.5 22 C-9.07562059 20.97839412 -10.91217393 19.91365555 -13.11328125 16.87890625 C-14.80853285 13.28676519 -14.90452791 9.83717701 -14 6 C-9.74720123 0.62804366 -6.77223161 -0.56435263 0 0 Z " fill="#FCEFF9" transform="translate(485,92)"/>
<path d="M0 0 C3.4203866 1.17013226 3.91540482 1.87310723 6 5 C6.64634274 9.92272665 7.07299241 14.49781063 4.125 18.625 C0.18365909 21.17527942 -3.35012146 21.81951882 -8 21 C-10.69105198 18.82425584 -12.45532928 17.08934144 -14 14 C-14.5811138 6.91041162 -14.5811138 6.91041162 -12.125 3.0625 C-8.41461706 -0.53875403 -4.9704131 -0.39447723 0 0 Z " fill="#FDF1FA" transform="translate(439,92)"/>
<path d="M0 0 C2.97 0 5.94 0 9 0 C9 11.88 9 23.76 9 36 C6.03 36 3.06 36 0 36 C0 24.12 0 12.24 0 0 Z " fill="#B00B88" transform="translate(575,85)"/>
<path d="M0 0 C2.97 0 5.94 0 9 0 C9 11.88 9 23.76 9 36 C6.03 36 3.06 36 0 36 C0 24.12 0 12.24 0 0 Z " fill="#B00B88" transform="translate(222,85)"/>
<path d="M0 0 C5.61 0 11.22 0 17 0 C17 1.65 17 3.3 17 5 C13.04 5 9.08 5 5 5 C5 6.98 5 8.96 5 11 C8.3 11 11.6 11 15 11 C15.33 12.65 15.66 14.3 16 16 C12.37 16 8.74 16 5 16 C5 19.63 5 23.26 5 27 C3.35 27 1.7 27 0 27 C0 18.09 0 9.18 0 0 Z " fill="#FBEDF8" transform="translate(102,86)"/>
<path d="M0 0 C1.875 1.4375 1.875 1.4375 3 3 C3 3.66 3 4.32 3 5 C0.89828133 5.8394882 -1.20646625 6.67139656 -3.3125 7.5 C-4.48425781 7.9640625 -5.65601563 8.428125 -6.86328125 8.90625 C-10 10 -10 10 -13 10 C-12.67641073 6.44051799 -12.3899006 4.46536524 -10.0625 1.6875 C-6.393887 -1.31409245 -4.58013881 -1.12166665 0 0 Z " fill="#F9E7F5" transform="translate(613,92)"/>
<path d="M0 0 C3.25966368 1.10967274 4.74574447 2.38675303 6.9375 5 C4.43813756 7.49936244 2.28941992 8.03723753 -1.0625 9.125 C-2.135 9.47820312 -3.2075 9.83140625 -4.3125 10.1953125 C-7.0625 11 -7.0625 11 -9.0625 11 C-8.8258636 6.89830241 -8.62259401 4.64010743 -5.875 1.5 C-3.0625 0 -3.0625 0 0 0 Z " fill="#FAEAF6" transform="translate(525.0625,91)"/>
<path d="M0 0 C3 0.25 3 0.25 5 2.25 C5.25 5.25 5.25 5.25 5 8.25 C3 10.25 3 10.25 0.0625 10.5625 C-3 10.25 -3 10.25 -4.9375 9.0625 C-6 7.25 -6 7.25 -5.8125 4.6875 C-4.61374094 1.09122283 -3.8124642 0.31770535 0 0 Z " fill="#B3138B" transform="translate(580,65.75)"/>
<path d="M0 0 C3 0.25 3 0.25 5 2.25 C5.25 5.25 5.25 5.25 5 8.25 C3 10.25 3 10.25 0.0625 10.5625 C-3 10.25 -3 10.25 -4.9375 9.0625 C-6 7.25 -6 7.25 -5.8125 4.6875 C-4.61374094 1.09122283 -3.8124642 0.31770535 0 0 Z " fill="#B3138B" transform="translate(227,65.75)"/>
</svg>
